<?xml version="1.0" encoding="utf-8"?>
<!-- Generator: Adobe Illustrator 26.1.0, SVG Export Plug-In . SVG Version: 6.00 Build 0)  -->
<svg version="1.1" id="Слой_1" xmlns="http://www.w3.org/2000/svg" xmlns:xlink="http://www.w3.org/1999/xlink" x="0px" y="0px"
	 viewBox="0 0 157.61 211.46" style="enable-background:new 0 0 157.61 211.46;" xml:space="preserve">
<style type="text/css">
	.st0{fill:none;stroke:#FF2E65;stroke-width:3;stroke-miterlimit:10;}
	.st1{fill:none;stroke:#FF2E65;stroke-width:3;stroke-miterlimit:10;}
</style>
<path class="st0" d="M5.39,197.03l20.86-156c0.53-3.97,3.92-6.94,7.93-6.94h89c4.01,0,7.4,2.97,7.93,6.94l20.86,156
	c0.64,4.8-3.09,9.06-7.93,9.06H13.32C8.48,206.09,4.75,201.83,5.39,197.03z"/>
<path class="st1" d="M58.57,34.09V22.58c0-4.7,1.86-9.21,5.18-12.54l0.7-0.7c2.38-2.39,5.61-3.73,8.98-3.73h14.31
	c2.4,0,4.74,0.83,6.6,2.34l0,0c3.92,3.18,6.19,7.96,6.19,13v13.15"/>
<polyline class="st1" points="23.7,57.06 23.7,57.06 133.65,57.06 "/>
<line class="st1" x1="7.05" y1="184.61" x2="150.3" y2="184.61"/>
<line class="st1" x1="58.57" y1="132.36" x2="100.52" y2="132.36"/>
<line class="st1" x1="58.57" y1="101.98" x2="72.17" y2="117.28"/>
<line class="st1" x1="85.78" y1="117.28" x2="98.82" y2="101.98"/>
</svg>
