<?xml version="1.0" encoding="utf-8"?>
<!-- Generator: Adobe Illustrator 26.1.0, SVG Export Plug-In . SVG Version: 6.00 Build 0)  -->
<svg version="1.1" id="Слой_1" xmlns="http://www.w3.org/2000/svg" xmlns:xlink="http://www.w3.org/1999/xlink" x="0px" y="0px"
	 viewBox="0 0 236.98 232.44" style="enable-background:new 0 0 236.98 232.44;" xml:space="preserve">
<style type="text/css">
	.st0{fill:none;stroke:#F8F4E7;stroke-width:6;stroke-miterlimit:10;}
	.st1{fill:#FF2E65;}
	.st2{fill:#F8F4E7;}
	.st3{fill:none;stroke:#FF2E65;stroke-width:2;stroke-miterlimit:10;}
	.st4{opacity:0.65;}
	.st5{fill:#FF2E65;}
	.st6{opacity:0.74;}
	.st7{fill:#FBF4E8;}
	.st8{fill:#FF2E65;}
	.st9{fill:#FFFFFF;}
</style>
<path class="st0" d="M23.5,158.93l-10.53,7.87c-2.83,2.12-5.05,5.01-6.1,8.39c-0.1,0.31-0.18,0.63-0.26,0.95l0,0
	c-0.83,3.33-0.65,6.83,0.49,10.07l0,0c1.96,5.52,5.39,10.4,9.91,14.12l0,0c7.02,5.76,14.93,10.32,23.43,13.52l1.8,0.68
	c11.69,4.39,23.81,7.57,36.15,9.47l8.77,1.35c8.16,1.26,16.41,1.8,24.66,1.62l20.59-0.45c11.59-0.25,23.11-1.78,34.37-4.55
	l15.56-3.83c11.69-2.88,22.8-7.77,32.82-14.44l2.63-1.75c5.26-3.51,9.35-8.51,11.74-14.36l0,0c1.66-4.07,1.73-8.61,0.2-12.72l0,0
	c-1.65-4.44-4.08-7.81-8.95-10.86c-1.61-1.01-3.22-2.01-4.78-3.08l-7.3-5.03"/>
<path class="st1" d="M31.53,183.31l13.03-5.51c0.97-0.41,2.09-0.02,2.6,0.91l3.36,6.17c1.69,3.11,3.76,5.99,6.16,8.59l16.8,18.2
	L31.53,183.31z"/>
<path class="st2" d="M44.89,172.17l-2.83-12.79c-0.86-3.89-1.49-7.82-1.89-11.78l-1.14-11.48c-0.73-7.32-0.77-14.7-0.12-22.03
	l2.11-23.77c0.4-4.49,0.94-8.96,1.63-13.41l6.39-41.18l-2.2-4.96c-0.54-1.21-2.01-1.67-3.13-0.98l-2.95,1.8
	c-0.97,0.59-2.22,0.34-2.89-0.57l-3.08-4.18c-0.1-0.13-0.31-0.08-0.34,0.08l-7.52,41.76c-0.01,0.06-0.02,0.11-0.02,0.17l-3.86,38
	c-0.3,2.91-0.51,5.83-0.64,8.75l-0.91,20.2c0,0.08,0,0.16,0,0.24l1.36,21.41c0.16,2.45,0.74,4.85,1.73,7.09l2.86,6.49
	c0.02,0.05,0.04,0.1,0.07,0.14l2.51,4.73c0.12,0.23,0.2,0.48,0.24,0.74l0.03,0.24c0.19,1.4,1.63,2.27,2.95,1.76l10.28-3.94
	C44.55,174.31,45.13,173.24,44.89,172.17z"/>
<path class="st2" d="M55.63,31.63l5.21,6.62l5.48-3.62l4.78,7.56l3.42,1.3l-2.29,8.03c-2.97,10.4-4.99,21.05-6.04,31.81l-1.24,12.65
	c-0.25,2.6-0.38,5.22-0.38,7.84v24.84c0,8.46,0.54,16.91,1.62,25.31l1.74,13.57c0.96,7.49,2.44,14.91,4.43,22.2l5.26,19.29l0,0
	c-8.66-7.66-16.39-16.31-23.04-25.77l-3.42-4.87c-1.38-1.96-2.22-4.25-2.46-6.64l-2.83-29.24l-0.77-7.21
	c-1.38-12.93-1.47-25.96-0.27-38.91l0.28-3.05c0.88-9.55,2.24-19.04,4.06-28.46L55.63,31.63z"/>
<path class="st3" d="M203.98,182.2l-4.22,1.81c-5.38,2.31-10.94,4.15-16.63,5.53L83.71,213.5c-2.58,0.62-5.3,0.17-7.55-1.25
	l-40.97-25.92c-2.81-1.78-4.52-4.88-4.52-8.21v0c0-3.13-1.13-6.15-3.18-8.51l0,0c-2.43-2.79-3.96-6.25-4.39-9.92l-0.07-0.59
	c-1.78-15.09-2.02-30.32-0.74-45.46l2.2-25.92c0.65-7.6,1.59-15.18,2.83-22.71l6.99-42.38c0.08-0.48,0.7-0.62,0.98-0.22l3.2,4.57
	l2.22-4.44c0.33-0.66,1.15-0.89,1.78-0.51l6.2,3.82l4.63-3.71c0.6-0.48,1.46-0.47,2.04,0.03l2.27,1.95c0.37,0.32,0.93,0.24,1.2-0.16
	l4.06-5.86c0.28-0.4,0.85-0.45,1.19-0.11l5.23,5.23c0.46,0.46,1.24,0.36,1.57-0.2l2.47-4.23c0.44-0.76,1.46-0.93,2.13-0.37
	l4.72,3.99c0.69,0.58,1.74,0.35,2.12-0.48l1.55-3.41c0.27-0.59,1.03-0.75,1.51-0.31l3.77,3.39c0.52,0.47,1.32,0.45,1.82-0.05
	l4.21-4.21l5.67,2.27l3.28-5.46c0.07-0.11,0.21-0.15,0.32-0.07l7.16,4.77c0.63,0.42,1.49,0.25,1.91-0.39l2.39-3.62
	c0.31-0.47,0.97-0.55,1.39-0.16l4.64,4.36l3.6-4.15c0.49-0.56,1.29-0.72,1.96-0.39l5.67,2.84l4.94-6.92
	c0.35-0.49,1.09-0.48,1.42,0.02l3.84,5.76l1.66-4.97c0.29-0.87,1.37-1.16,2.06-0.55l3.65,3.25l5.81-3.87
	c0.57-0.38,1.33-0.28,1.79,0.24l3.18,3.63l3.97-3.97c0.33-0.33,0.84-0.38,1.23-0.14l5.57,3.54l4.05-7.09
	c0.19-0.33,0.68-0.28,0.79,0.08l2.53,7.58l8.06-2.84c0.88-0.31,1.84,0.14,2.15,1.02l1.69,4.66l4.47-1.12
	c1.41-0.35,2.89,0.19,3.75,1.36l3.12,4.29l5.57-2.14c1.09-0.42,2.32-0.12,3.09,0.74l3.81,4.23l6.35-1.95
	c0.37-0.11,0.69,0.28,0.5,0.62l-10.25,18.34v0c-5.26,12.79-8.68,26.25-10.16,40l-0.2,1.83c-0.66,6.11-0.77,12.27-0.34,18.41
	l0.23,3.26c0.93,13.2,2.94,26.3,6.03,39.17l0,0c1.44,6,2.52,12.08,3.23,18.22l0.81,7C212.23,174.65,209.14,179.99,203.98,182.2z"/>
<path class="st3" d="M219.35,27.97l-6.98-2.69c-0.23-0.09-0.49-0.02-0.64,0.18l-3.41,4.38c-0.17,0.22-0.49,0.28-0.73,0.14
	l-4.76-2.85c-0.27-0.16-0.61-0.07-0.77,0.2l-3.3,5.66c-0.19,0.33-0.64,0.37-0.9,0.1l-5.76-6.24c-0.26-0.28-0.72-0.22-0.9,0.11
	l-3.22,5.99c-0.18,0.34-0.65,0.4-0.91,0.11l-5.19-5.66c-0.25-0.28-0.71-0.23-0.9,0.1l-3.2,5.48c-0.19,0.33-0.65,0.37-0.9,0.09
	l-3.67-4.12c-0.2-0.22-0.54-0.25-0.77-0.06l-5.4,4.42c-0.23,0.19-0.57,0.16-0.77-0.06l-3.58-4.02c-0.28-0.31-0.78-0.22-0.94,0.16
	l-2.79,6.97c-0.14,0.35-0.57,0.46-0.87,0.23l-6.83-5.36c-0.27-0.21-0.67-0.13-0.84,0.17l-3.33,6.19c-0.17,0.31-0.57,0.39-0.84,0.17
	l-4.73-3.78c-0.23-0.19-0.57-0.16-0.77,0.07l-3.28,3.75c-0.19,0.22-0.52,0.25-0.75,0.08l-5.41-3.94c-0.23-0.17-0.56-0.13-0.75,0.08
	l-3.74,4.21c-0.23,0.26-0.65,0.25-0.87-0.03l-3.08-4.07c-0.2-0.26-0.58-0.3-0.82-0.08l-6.57,5.98c-0.24,0.22-0.63,0.19-0.82-0.08
	l-4.01-5.34c-0.29-0.38-0.89-0.25-0.99,0.21l-1.61,7.11c-0.09,0.38-0.52,0.56-0.85,0.35l-7.64-4.97c-0.23-0.15-0.54-0.11-0.72,0.1
	l-3.79,4.27c-0.22,0.25-0.62,0.25-0.84,0l-3.1-3.54c-0.23-0.27-0.65-0.25-0.87,0.03l-4.85,6.3c-0.21,0.28-0.62,0.29-0.86,0.04
	l-5.47-5.97c-0.18-0.2-0.48-0.24-0.71-0.1l-6.47,3.98c-0.27,0.17-0.64,0.07-0.79-0.21l-3.94-7.38c-0.16-0.31-0.57-0.39-0.84-0.17
	l-4.67,3.74c-0.25,0.2-0.63,0.15-0.81-0.12l-4.47-6.45c-0.17-0.24-0.49-0.31-0.74-0.16L49.86,35c-0.31,0.18-0.7,0.03-0.81-0.3
	l-2.39-6.92c-0.12-0.34-0.51-0.48-0.82-0.3l-6.78,4.12c-0.29,0.18-0.68,0.05-0.81-0.27l-3.72-9.03"/>
<path class="st3" d="M79.32,213.77L79.32,213.77c-6.03-16.2-10.21-33.03-12.46-50.17l-0.56-4.26c-1.14-8.69-1.72-17.44-1.72-26.2
	V99.89c0-4.58,0.26-9.15,0.78-13.7l1.35-11.76c1.22-10.61,3.85-21.02,7.81-30.94l1.96-3.9"/>
<path class="st2" d="M68.95,155.96l1.15,12.34c0.75,8.01,2.08,15.96,4,23.77l4.76,19.38c0.16,0.66,0.83,1.07,1.5,0.91l47.55-11.61
	l-4.98-1.16c-10.43-2.43-20.28-6.85-29.04-13.01l0,0l-3.37-2.73c-5.65-4.57-10.5-10.06-14.33-16.24L68.95,155.96z"/>
<g class="st4">
	<g>
		<path class="st2" d="M89.2,67.23c-1.3,4.11-2.32,8.16-1.25,12.45c0.89,3.58,3.13,7.83,0.72,11.29c-0.92,1.32,1.24,2.57,2.16,1.26
			c2.35-3.37,1.25-7.51,0.15-11.11c-0.67-2.18-1.18-4.29-0.97-6.6c0.21-2.27,0.93-4.47,1.62-6.64C92.1,66.36,89.68,65.7,89.2,67.23
			L89.2,67.23z"/>
	</g>
</g>
<g>
	<g>
		<path class="st5" d="M110.69,139.17c2.19,2.26,5.67,3.21,8.68,2.22c2.88-0.95,5.16-3.48,5.72-6.47c0.12-0.66-0.18-1.35-0.87-1.54
			c-0.61-0.17-1.41,0.21-1.54,0.87c-0.4,2.12-1.88,4.03-3.97,4.72c-2.2,0.72-4.65,0.08-6.25-1.57
			C111.33,136.25,109.57,138.02,110.69,139.17L110.69,139.17z"/>
	</g>
</g>
<g>
	<g>
		<path class="st5" d="M168.74,126.77c-1.16,1.96-3.37,3.14-5.65,2.98c-2.22-0.16-4.13-1.71-5.03-3.7
			c-0.28-0.62-1.17-0.76-1.71-0.45c-0.63,0.37-0.73,1.09-0.45,1.71c1.26,2.81,4.13,4.72,7.18,4.93c3.13,0.22,6.23-1.54,7.81-4.21
			C171.72,126.64,169.56,125.38,168.74,126.77L168.74,126.77z"/>
	</g>
</g>
<g>
	<g>
		<path class="st5" d="M158.11,155.91c-2.68-3.64-6.4-7.86-11.46-6.46c-5.28,1.46-7.2,7.11-7.23,12.05c-0.01,1.61,2.49,1.61,2.5,0
			c0.02-3.79,1.24-8.48,5.4-9.64c3.79-1.06,6.68,2.65,8.64,5.31c0.4,0.55,1.08,0.81,1.71,0.45
			C158.21,157.31,158.51,156.45,158.11,155.91L158.11,155.91z"/>
	</g>
</g>
<g class="st6">
	<g>
		<path class="st7" d="M179.19,71.18c-1.94,2.21-3.86,4.49-4.79,7.33c-0.87,2.68-0.61,5.57,0.86,7.98c0.99,1.63,2.73,3.13,3.4,4.83
			c0.33,0.82,0.13,1.55-0.33,2.42c-0.64,1.22-1.33,2.42-1.67,3.77c-0.79,3.12,4.03,4.45,4.82,1.33c0.61-2.4,2.4-4.2,2.35-6.83
			c-0.04-2.39-1.44-4.31-2.85-6.11c-1.16-1.48-2.35-2.93-2.06-4.92c0.37-2.46,2.23-4.46,3.81-6.26c0.89-1.01,1-2.54,0-3.54
			C181.82,70.27,180.09,70.16,179.19,71.18L179.19,71.18z"/>
	</g>
</g>
<path class="st8" d="M38.5,27.01"/>
<path class="st1" d="M37.62,28.45l3.25-5.29c0.31-0.74,1.1-0.99,1.69-0.55l5.54,4.12c0.45,0.34,0.05,0.27,0.44-0.16l4.3-3.62
	c0.58-0.64,1.52-0.62,2.08,0.04v0c1.73,2.07,4.65,1.72,6-0.7l1.55-2.78c0.4-0.72,1.26-0.84,1.8-0.25l4.52,3.96
	c0.51,0.57,1.33,1.48,1.75,0.81l3.02-4.76c0.4-0.63,1.15-0.75,1.67-0.27l5.02,3.6c0.58,0.53,1.42,1.32,1.77,0.56l1.6-3.49
	c0.36-0.79,1.25-0.97,1.82-0.38l4.12,3.25c0.56,0.59,0.47,0.57,1.01-0.04l4.07-4.57c0.35-0.39,0.86-0.49,1.29-0.27l4.33,2.25
	c0.58,0.3,1.25,0.01,1.53-0.65l1.87-4.41c0.32-0.74,1.11-0.99,1.7-0.54l6.75,5.16c0.57,0.44,1.34,0.22,1.67-0.48l1.88-3.93
	c0.38-0.8,1.31-0.95,1.86-0.31l2.92,3.4c0.62,0.72,1.59,0.68,2.15-0.07l2.85-3.8c0.35-0.47,0.94-0.61,1.42-0.32l5.36,3.15
	c0.52,0.3,1.15,0.12,1.49-0.43l3.7-6.02c0.57-0.92,1.87-0.9,2.42,0.03l2.39,4.09c0.56,0.95,1.81,0.74,2.1-0.37l0.98-3.68
	c0.26-0.97,1.28-1.29,1.92-0.61l2.5,2.66c0.39,0.42,0.97,0.48,1.41,0.15l5.07-3.68c0.48-0.35,1.1-0.25,1.48,0.23l2.33,2.93
	c0.54,0.68,1.46,0.72,2.06,0.1l3.09-3.2c0.38-0.39,0.93-0.46,1.37-0.16l4.59,3.12c0.57,0.39,1.3,0.15,1.62-0.52l1.92-4.04
	c0.5-1.05,1.82-0.91,2.15,0.23l1.24,4.24c0.21,0.72,0.87,1.11,1.49,0.87l7.65-2.97c0.61-0.24,1.27,0.14,1.48,0.85l1.5,4.92
	c0.21,0.68,0.83,1.06,1.42,0.87l4.74-1.51c0.44-0.14,0.9,0.03,1.2,0.42l4.09,5.47c0.31,0.42,0.81,0.58,1.26,0.4l5.78-2.26
	c0.42-0.17,0.89-0.04,1.21,0.34l4.21,3.94c0.31,0.37,0.78,1.5,1.2,1.34l2.4-0.92c4.53-1.09,3.77,0.65,3.5,1.72l-0.92,0.68
	c-0.19,0.75-1.94,0.48-2.57,0.24l-5.75-2.18c-0.45-0.17,0.05-0.01-0.26,0.41l-2.57,3.49c-0.35,0.48-1.93,1.61-2.41,1.34l-4.31-3.48
	c-0.54-0.31-0.2-0.09-0.52,0.51l-2.5,4.67c-0.39,0.73-2.25,0.87-2.79,0.29l-4.3-4.59c-0.54-0.57-1.38-0.45-1.78,0.26l-2.37,4.21
	c-0.37,0.67-1.15,0.82-1.69,0.35l-4.62-4.05c-0.51-0.45-1.23-0.34-1.62,0.24l-2.43,3.53c-0.43,0.63-1.22,0.69-1.72,0.14l-2.62-2.86
	c-0.41-0.44-1.02-0.49-1.48-0.12l-4.87,3.98c-0.49,0.4-1.16,0.31-1.55-0.21l-2.72-3.56c-0.58-0.76-1.64-0.55-1.97,0.39l-2.11,5.96
	c-0.29,0.83-1.16,1.12-1.78,0.6l-6.12-5.15c-0.6-0.51-0.45-0.24-0.76,0.55l-3.15,5.48c-0.33,0.83-1.23,1.07-1.83,0.48l-3.67-3.59
	c-0.52-0.51-1.29-0.4-1.7,0.23l-2.26,3.49c-0.38,0.58-1.08,0.72-1.6,0.31l-4.54-3.56c-0.51-0.4-1.2-0.27-1.58,0.29l-2.34,3.46
	c-0.43,0.64-1.24,0.7-1.74,0.14l-3.09-3.46c-0.56-0.63-1.49-0.63-2.05,0l-4.73,5.29c-0.5,0.56-1.31,0.5-1.74-0.14l-2.46-3.65
	c-0.91-1.35-2.75-0.87-3.09,0.81l-1.03,5.08c-0.19,0.94-1.12,1.37-1.81,0.83l-6.3-4.98c-0.52-0.41-1.21-0.28-1.59,0.3l-2.22,3.35
	c-0.59,0.89-1.6,0.93-2.25,0.09l-1.46-1.86c-0.62-0.79-1.62-0.78-2.22,0.03l-3.93,5.33c-0.61,0.83-1.62,0.83-2.23,0.01L79.1,39.2
	c-0.41-0.54-1.1-0.63-1.59-0.2l-4.67,4.09c-0.58,0.51-1.41,0.29-1.75-0.46l-3.5-7.73c-0.35-0.77-1.2-0.98-1.78-0.43l-3.61,3.39
	c-0.51,0.48-1.27,0.38-1.67-0.23l-3.64-5.5c-0.34-0.51-0.93-0.68-1.43-0.41l-4.66,2.55c-0.61,0.34-1.34,0-1.6-0.74l-1.77-5.21
	c-0.25-0.72-0.95-1.07-1.56-0.76l-5.68,2.86c-0.56,0.28-1.21,1.02-1.5,0.39l-0.04-1.08C38.46,29.33,37.45,28.85,37.62,28.45z"/>
<g>
	<g>
		<path class="st9" d="M205.23,161.24c3.22,0,3.22-5,0-5C202.01,156.24,202.01,161.24,205.23,161.24L205.23,161.24z"/>
	</g>
</g>
<g>
	<g>
		<path class="st9" d="M208.16,163.37c0.19-1.17,0.31-2.35,0.22-3.54c-0.09-1.18-0.29-2.36-0.65-3.48c-0.2-0.62-0.58-1.16-1.15-1.49
			c-0.54-0.31-1.33-0.45-1.93-0.25c-0.6,0.2-1.19,0.57-1.49,1.15c-0.31,0.58-0.46,1.28-0.25,1.93c0.23,0.7,0.39,1.41,0.49,2.14
			c-0.03-0.22-0.06-0.44-0.09-0.66c0.13,1.04,0.14,2.09,0.01,3.13c0.03-0.22,0.06-0.44,0.09-0.66c-0.02,0.14-0.04,0.28-0.06,0.41
			c-0.11,0.68-0.11,1.31,0.25,1.93c0.3,0.52,0.9,1.01,1.49,1.15c0.64,0.15,1.36,0.11,1.93-0.25
			C207.53,164.53,208.06,164,208.16,163.37L208.16,163.37z"/>
	</g>
</g>
<g>
	<g>
		<path class="st9" d="M206.65,160.67c3.22,0,3.22-5,0-5C203.43,155.67,203.42,160.67,206.65,160.67L206.65,160.67z"/>
	</g>
</g>
<g>
	<g>
		<path class="st9" d="M206.65,162.23c3.22,0,3.22-5,0-5C203.43,157.23,203.42,162.23,206.65,162.23L206.65,162.23z"/>
	</g>
</g>
<g>
	<g>
		<path class="st9" d="M206.22,159.11c3.22,0,3.22-5,0-5C203,154.11,203,159.11,206.22,159.11L206.22,159.11z"/>
	</g>
</g>
</svg>
